<svg version="1.1" id="Layer_1" xmlns="http://www.w3.org/2000/svg" xmlns:xlink="http://www.w3.org/1999/xlink" x="0px" y="0px"
	 width="100%" viewBox="0 0 1088 478" enable-background="new 0 0 1088 478" xml:space="preserve">
<path fill="none" opacity="1.000000" stroke="none" 
	d="
M1.000000,391.000000 
	C1.000000,261.055145 1.000000,131.110275 1.000000,1.000000 
	C207.024063,1.000000 413.048157,1.000000 619.348999,1.362717 
	C599.019531,4.152045 581.114258,12.130775 567.486755,28.118265 
	C558.502747,38.658112 553.447693,50.985321 552.984497,65.030182 
	C552.405151,82.596848 558.135620,98.355408 566.172852,113.624313 
	C578.262085,136.590912 594.681580,156.342499 612.553589,174.753052 
	C627.990540,190.655106 643.311401,206.404114 652.413269,226.957306 
	C659.385010,242.700256 662.473206,258.740753 654.033447,275.112091 
	C653.646667,275.862335 654.099365,277.045380 654.009705,278.344482 
	C652.676208,279.502686 651.365967,280.210083 650.331604,281.204437 
	C640.136963,291.005280 629.741394,300.780548 622.580505,313.057007 
	C617.792786,321.265015 613.028259,329.964355 615.916565,340.403107 
	C617.146301,344.847473 619.943298,347.528809 623.901489,345.778168 
	C628.932800,343.552856 633.531677,340.061127 637.812439,336.507538 
	C642.227112,332.842712 642.170166,329.494202 638.675903,325.134033 
	C633.817810,319.072052 633.235352,312.474121 638.249390,306.503693 
	C644.318420,299.277100 650.532959,291.922272 657.824829,286.035370 
	C667.297485,278.387848 678.340271,274.538971 690.842773,278.992462 
	C699.136353,281.946686 707.419189,285.061707 715.932190,287.212921 
	C719.980652,288.235992 725.074524,288.403442 728.792419,286.828369 
	C739.310486,282.372406 743.937561,272.598511 748.505005,262.490753 
	C747.341736,262.254517 746.569519,261.826752 746.147217,262.052795 
	C740.321838,265.170563 735.419617,262.030670 730.410950,259.791168 
	C716.014954,253.354370 701.485535,253.899063 687.134277,259.534210 
	C679.586731,262.497833 672.430969,266.459076 665.071045,269.580322 
	C668.920776,258.129883 669.793701,246.789825 669.102295,235.110809 
	C668.272644,221.096466 665.229614,207.743393 659.488342,194.968781 
	C648.523865,170.572189 630.852966,150.640045 615.569153,129.127808 
	C606.083313,115.776299 597.226929,102.144936 593.500549,85.919044 
	C591.421448,76.866081 590.883179,67.856750 594.582092,58.885735 
	C598.864502,48.499226 606.568909,41.674263 616.792725,38.236607 
	C625.346191,35.360611 634.509888,32.041157 643.242615,32.439854 
	C659.969482,33.203533 676.365601,37.521221 691.893005,44.107979 
	C710.039917,51.805916 726.015991,62.482449 737.082397,79.376251 
	C751.215149,100.951271 753.434509,124.647919 748.768066,149.211899 
	C744.774658,170.233444 737.297913,190.184647 727.334900,209.135498 
	C722.484436,218.361710 717.064880,227.290009 712.266357,236.541687 
	C710.011475,240.889221 708.615967,245.682449 706.830994,250.273697 
	C708.305359,250.031235 708.686340,249.358002 709.090149,248.698822 
	C715.040466,238.987228 720.542053,228.963089 727.037170,219.630478 
	C742.193237,197.853088 757.742920,176.351837 767.297180,151.300812 
	C774.094116,133.479385 778.418030,115.144661 774.870544,96.056007 
	C770.371643,71.848312 756.312439,53.480881 736.998474,39.055614 
	C728.832275,32.956474 720.047058,27.549841 711.069580,22.706352 
	C698.623962,15.991809 686.119934,9.197299 672.142883,5.943981 
	C665.093567,4.303157 658.047546,2.648437 651.000000,1.000000 
	C796.917419,1.000000 942.834778,1.000000 1089.000000,1.000000 
	C1089.000000,107.023949 1089.000000,213.048096 1088.563110,319.536407 
	C1083.570557,319.380951 1080.054199,320.442383 1077.439453,324.796631 
	C1074.389648,329.875397 1071.051270,334.932159 1067.012939,339.221710 
	C1063.270508,343.197052 1058.440063,346.148163 1053.211792,350.235931 
	C1056.425659,341.725830 1059.336792,334.728912 1061.691284,327.549469 
	C1063.454834,322.172058 1060.998169,319.216431 1055.461426,320.156708 
	C1052.628540,320.637756 1049.023315,322.028931 1047.575317,324.209534 
	C1042.717041,331.525543 1038.216309,339.171448 1034.542969,347.135864 
	C1033.096436,350.272095 1032.924561,355.215088 1034.422119,358.210266 
	C1036.786133,362.937988 1034.767700,365.410156 1032.117920,368.405884 
	C1027.354858,373.790588 1022.942017,379.515961 1017.875854,384.593109 
	C1012.422729,390.058075 1006.901489,395.746002 1000.466858,399.862366 
	C993.464478,404.341888 988.332764,401.045166 986.613220,395.899445 
	C985.304138,391.982056 985.172058,387.564178 985.155579,383.366455 
	C985.147095,381.206909 986.299133,379.233215 989.098572,378.290955 
	C992.896484,377.012573 996.456970,374.941620 999.989563,372.977448 
	C1015.749878,364.214508 1028.192627,352.881409 1030.810181,333.697357 
	C1031.595337,327.943726 1027.623413,320.270599 1022.441040,320.179321 
	C1017.825745,320.098053 1012.810913,320.558014 1008.633545,322.334106 
	C999.720642,326.123596 993.523926,333.444672 987.564209,340.888580 
	C980.248840,350.025818 974.403992,359.972382 969.936279,370.786621 
	C968.188049,375.018250 966.669861,379.663025 963.783813,383.040253 
	C957.770508,390.077026 952.688782,398.396912 942.472595,401.859192 
	C942.371277,399.930756 941.805298,398.089722 942.288818,396.586212 
	C943.462280,392.937164 944.961182,389.367310 946.617737,385.903625 
	C953.027527,372.501770 959.916504,359.314117 965.863647,345.712921 
	C968.510376,339.659729 970.016968,332.892883 970.792358,326.303040 
	C971.439819,320.800873 965.522949,316.794586 961.077637,319.547150 
	C954.227539,323.788696 947.587097,328.579315 941.625610,333.984009 
	C936.094849,338.998077 931.570312,345.122070 926.441772,350.541016 
	C926.159363,350.192261 926.037903,350.059784 925.957947,349.558472 
	C930.754639,339.294098 935.509766,329.398529 940.560425,318.887970 
	C934.352600,320.469238 929.281006,321.480103 924.421509,323.119568 
	C922.052551,323.918823 919.352661,325.423737 918.067566,327.422516 
	C914.678101,332.694641 912.285889,338.603516 908.947205,343.913452 
	C900.542358,357.280884 898.440552,373.760742 887.940430,386.060181 
	C882.096375,392.905640 875.921509,399.454407 867.068176,402.212891 
	C865.140442,402.813538 861.094788,401.768616 860.479919,400.388123 
	C859.079590,397.243835 857.954956,393.023315 858.936157,389.947662 
	C862.095642,380.043915 866.049438,370.371674 870.106262,360.783325 
	C873.091614,353.727234 876.188599,346.611603 880.228760,340.142670 
	C883.393250,335.075836 888.000488,330.886505 892.104919,326.434723 
	C904.295288,313.212738 914.534790,298.712494 920.004700,281.430786 
	C922.367859,273.964478 923.828064,266.128357 924.844666,258.348694 
	C925.556396,252.901886 922.697998,251.200424 917.470886,253.101196 
	C914.019104,254.356415 910.590027,255.731781 907.297180,257.350952 
	C903.437073,259.249084 898.672974,260.628204 896.206543,263.741943 
	C892.179321,268.826111 889.460327,275.019257 886.603271,280.944092 
	C877.739136,299.326294 868.991760,317.766022 860.363525,336.260101 
	C856.917603,343.646271 855.239197,352.269257 850.405396,358.507904 
	C840.971863,370.683289 829.952515,381.640900 819.419861,392.944366 
	C817.370056,395.144104 814.704163,396.912445 812.039734,398.359131 
	C808.962158,400.030182 806.628113,398.385468 807.093933,395.056152 
	C807.401794,392.855560 807.973267,390.614319 808.867554,388.585602 
	C815.992676,372.421844 823.197144,356.292877 830.433960,340.178680 
	C833.437073,333.491791 836.578369,326.866974 840.060486,319.341431 
	C833.618591,321.026245 827.939880,322.778137 822.143066,323.941101 
	C817.705994,324.831360 815.608826,327.302856 813.817383,331.348816 
	C807.575806,345.445221 800.781921,359.296021 794.293762,373.284607 
	C789.883240,382.793823 783.441711,390.743378 775.663147,397.611115 
	C773.622437,399.412872 770.237976,402.056122 768.559021,401.423584 
	C764.792725,400.004761 766.812256,395.968536 767.082458,392.921631 
	C767.120972,392.486755 767.634949,392.114685 767.828613,391.669891 
	C776.034424,372.827087 784.168396,353.952698 792.463074,335.149200 
	C794.809875,329.829193 797.622314,324.714569 800.431763,319.083649 
	C793.908020,320.874786 788.139648,322.244110 782.530212,324.095093 
	C779.980042,324.936646 776.571472,326.147034 775.554565,328.187836 
	C768.398499,342.548828 760.808044,356.816132 755.259155,371.817261 
	C750.639709,384.305634 740.950378,391.111359 732.073547,399.073761 
	C727.949585,396.415497 727.749817,395.327057 730.757141,387.915619 
	C737.820068,370.509155 745.729675,353.445465 753.343201,336.263672 
	C755.837952,330.633484 758.475891,325.066772 761.358398,318.796631 
	C751.034180,318.823639 746.255371,328.109497 737.977539,330.617279 
	C737.590576,329.858856 737.128845,329.324524 737.046509,328.736969 
	C735.859070,320.271332 730.833618,316.658966 723.029053,320.167145 
	C716.081421,323.290161 709.243042,327.338165 703.485901,332.290833 
	C690.132324,343.778473 680.625610,358.274200 673.904236,374.541870 
	C669.335083,385.600525 665.979797,396.953979 667.018860,409.128387 
	C667.879211,419.207428 673.215942,424.514130 681.581238,420.935608 
	C688.205078,418.102020 693.699829,413.663239 698.120544,407.824432 
	C701.686707,403.114288 705.715454,398.754395 709.233521,394.599945 
	C708.827698,401.451843 708.268921,408.418091 708.055481,415.394928 
	C707.921631,419.767700 710.588684,422.487762 714.778076,421.817627 
	C718.262451,421.260223 722.069763,419.793884 724.724182,417.540527 
	C731.902222,411.447113 738.542114,404.719849 745.555908,398.459045 
	C745.837341,398.805634 745.958435,398.937164 746.043091,399.504333 
	C746.006226,405.066895 745.507202,410.256256 746.139221,415.304016 
	C746.834961,420.860596 751.677185,423.324463 757.121216,421.428467 
	C769.331360,417.176147 777.301270,407.680206 785.495239,398.487000 
	C785.653198,398.677094 786.016663,399.012115 785.981567,399.455627 
	C785.964294,405.049957 785.751709,410.214935 786.067566,415.347382 
	C786.358154,420.070648 790.909302,423.157349 795.388672,421.771027 
	C798.116638,420.926697 801.175232,420.009857 803.176575,418.148499 
	C814.072693,408.013977 824.686340,397.575836 835.558228,387.458679 
	C835.840698,387.807739 835.962280,387.940308 836.039673,388.483154 
	C836.685547,393.429260 836.101013,397.751740 833.994690,401.873779 
	C833.199158,403.430603 832.606140,405.095764 831.983887,406.735474 
	C825.950012,422.637115 819.898621,438.532196 813.918823,454.454193 
	C811.067627,462.045990 808.360046,469.691742 805.156189,478.498383 
	C813.220520,476.643829 820.064087,475.070007 826.448975,473.601654 
	C833.334290,455.331848 840.159058,437.222534 847.111450,418.774658 
	C850.762024,422.564453 854.630554,422.792664 858.642944,420.955658 
	C861.559265,419.620483 864.601990,418.283508 867.070923,416.302460 
	C873.809937,410.895050 880.274780,405.146118 887.315430,399.133514 
	C885.481506,406.975677 883.751648,414.372894 881.892578,422.322662 
	C887.292786,420.399841 891.878784,418.213074 896.710388,417.214569 
	C900.889893,416.350769 901.989563,413.874207 903.064636,410.409821 
	C906.203857,400.294220 908.815063,389.895935 913.163025,380.301788 
	C919.881714,365.476837 931.982910,354.603058 943.332825,343.321167 
	C943.892395,342.765015 944.960815,342.720825 946.400696,342.231537 
	C945.812134,344.293640 945.591003,345.922729 944.908325,347.327484 
	C938.453064,360.611572 931.784119,373.793457 925.457947,387.138092 
	C921.567993,395.343597 918.544556,403.876373 919.004211,413.208008 
	C919.359009,420.412048 923.546143,423.080139 930.473572,421.190369 
	C937.986877,419.140839 943.582458,414.282745 949.087280,409.317871 
	C953.697754,405.159607 957.881226,400.527863 963.001526,395.349518 
	C963.001526,399.391998 962.830933,402.193329 963.031189,404.967957 
	C963.859741,416.447540 971.866516,424.451813 983.997314,421.316071 
	C993.157654,418.948212 1000.385986,413.897430 1006.447327,407.735413 
	C1017.913086,396.079041 1028.569458,383.564758 1038.842773,370.826874 
	C1043.037109,365.626221 1046.968872,361.236206 1053.499634,360.312775 
	C1048.105591,370.294281 1042.285034,379.970032 1037.591064,390.164490 
	C1034.808960,396.206512 1033.103027,402.980072 1032.282959,409.594574 
	C1031.841431,413.155029 1033.293213,417.975342 1035.678101,420.608124 
	C1038.834595,424.092621 1043.235229,421.201843 1046.911255,419.561829 
	C1047.929443,419.107605 1048.904175,418.458069 1049.746704,417.723572 
	C1057.889404,410.625244 1066.026001,403.519318 1074.109741,396.353973 
	C1079.268311,391.781464 1078.310059,385.241211 1079.823608,379.485229 
	C1074.356323,384.204315 1069.512939,389.243408 1064.318481,393.890289 
	C1062.546753,395.475372 1059.893066,396.074677 1057.642334,397.124329 
	C1057.128174,394.338623 1056.577759,391.558563 1056.144043,388.760437 
	C1056.087524,388.395447 1056.693237,387.964447 1056.887329,387.518402 
	C1060.613892,378.956207 1064.009521,370.232910 1068.110352,361.854584 
	C1074.833618,348.118927 1082.012939,334.606537 1089.000000,321.000000 
	C1089.000000,373.649719 1089.000000,426.299469 1089.000000,478.949829 
	C726.333313,478.950500 363.666656,478.950500 1.000000,478.950500 
	C1.000000,450.909912 1.000000,422.918823 1.351937,394.607452 
	C2.900714,401.826172 6.256370,404.210144 13.503314,402.078308 
	C18.245291,400.683350 22.914015,398.895294 27.405558,396.827209 
	C33.983021,393.798706 34.352200,391.468750 30.569483,384.992645 
	C27.651352,379.996765 26.606190,375.287048 30.604729,369.666809 
	C35.182842,363.231934 41.637264,359.754791 47.996700,356.118744 
	C58.367558,350.189178 69.279182,345.442627 81.803558,345.606171 
	C66.732582,372.538940 58.032997,401.577057 56.456261,433.129089 
	C63.918907,432.106293 71.422089,430.719788 78.986588,430.155914 
	C84.919617,429.713593 85.102081,426.121460 85.024864,421.757751 
	C84.927879,416.277588 84.586632,410.757050 85.076027,405.319214 
	C86.848602,385.623505 94.580849,367.771454 102.358444,350.033203 
	C114.017136,355.511566 125.347481,360.835632 136.815277,366.224304 
	C134.462814,374.472290 131.707840,383.208099 129.518265,392.083374 
	C127.559906,400.021454 124.244659,407.820740 126.763481,416.391205 
	C129.403870,425.375275 136.098679,428.212494 143.746750,422.639648 
	C151.220474,417.193848 158.199875,411.069702 165.556915,405.459015 
	C165.838898,405.806732 165.960220,405.938751 166.044830,406.485291 
	C164.671265,413.155731 163.334396,419.411621 161.979691,425.750885 
	C167.270081,424.090302 172.327301,422.589630 177.320419,420.899567 
	C179.870102,420.036560 182.068420,419.229095 182.406113,415.492432 
	C182.772095,411.442535 184.627625,407.498047 186.027863,403.576965 
	C188.874329,395.605927 190.715836,386.984406 195.057816,379.911743 
	C200.686447,370.743195 208.190628,362.688171 215.215912,354.433380 
	C218.049240,351.104218 221.751968,348.514954 225.059021,345.588928 
	C225.451874,345.895416 225.844727,346.201904 226.237579,346.508362 
	C225.411865,348.874481 224.804871,351.345947 223.724594,353.589508 
	C217.201538,367.136810 210.375198,380.541595 204.054367,394.181335 
	C200.713699,401.390137 198.327515,408.982605 198.972519,417.195618 
	C199.410431,422.771759 202.201477,426.366547 206.614960,425.904266 
	C209.446625,425.607727 212.733612,425.160736 214.873886,423.537964 
	C224.241196,416.435577 233.264313,408.879242 241.967010,401.847412 
	C241.939117,401.286713 241.976913,401.910309 242.000107,402.534393 
	C242.240997,409.020081 240.985565,415.641296 244.868774,421.697113 
	C247.099625,425.176117 249.457275,426.343597 253.571884,425.246582 
	C262.823486,422.779968 269.359344,416.840088 275.111908,409.646515 
	C278.184937,405.803741 281.427307,402.096436 284.362335,398.602875 
	C283.913483,404.472870 283.173340,410.432617 283.069550,416.403442 
	C282.923279,424.817017 287.732178,427.896179 295.105713,423.858154 
	C299.730347,421.325592 304.124481,418.071228 307.937927,414.425232 
	C314.497620,408.153473 320.656128,401.442474 326.727905,394.686523 
	C331.053223,389.873901 334.949982,384.676849 339.056427,379.666473 
	C344.154633,373.446045 347.381927,365.096130 357.121368,364.103760 
	C357.458618,364.399841 357.600311,364.510345 357.517639,364.893555 
	C356.924683,365.881622 356.618317,366.638000 356.178162,367.306152 
	C347.581635,380.355865 339.447510,393.681030 336.348907,409.255066 
	C335.311462,414.469604 335.075989,420.190186 339.812500,424.239044 
	C344.447479,428.201080 348.713104,424.685303 351.997559,422.270447 
	C361.414520,415.346649 370.312073,407.716400 378.419525,401.167084 
	C379.140472,405.497284 379.311615,411.388428 381.281158,416.599915 
	C382.539215,419.928833 385.983398,423.503693 389.285858,424.754395 
	C395.306183,427.034302 401.465271,425.121735 407.337006,422.326050 
	C417.309357,417.577850 424.494751,409.497986 432.566284,402.472198 
	C432.844757,402.813232 432.964203,402.942932 433.046997,403.507935 
	C432.757507,405.695435 432.644379,407.481812 432.225677,409.193420 
	C430.987823,414.254028 433.208435,423.351501 436.713928,424.838409 
	C442.070648,427.110565 446.199615,423.708069 449.860596,420.531982 
	C455.719543,415.449066 461.220795,409.953583 466.865479,404.624237 
	C468.071075,403.485992 469.243195,402.312286 471.001099,400.599091 
	C471.001099,405.757385 470.948578,409.754730 471.011475,413.750305 
	C471.167725,423.676453 478.531036,428.318512 487.322327,423.815796 
	C490.309418,422.285889 493.205109,420.231293 495.531158,417.825378 
	C501.320831,411.836823 506.758942,405.508423 512.496704,399.501099 
	C512.655273,399.685791 513.016846,400.011841 512.980835,400.445862 
	C512.367554,405.053802 511.977905,409.264618 511.165619,413.392242 
	C510.146423,418.571136 513.164734,425.446472 517.448364,425.606537 
	C520.390076,425.716431 524.074158,424.811584 526.259521,422.973175 
	C534.690979,415.880493 542.605225,408.176575 550.807861,400.806915 
	C556.089050,396.062042 555.299561,389.467926 556.597717,383.370270 
	C553.511169,386.030701 551.187866,389.183441 548.464722,391.941345 
	C545.238342,395.208801 541.830322,398.348083 538.192810,401.141510 
	C535.419800,403.271057 532.892883,401.915192 533.094849,398.457825 
	C533.251831,395.770996 533.901367,392.977844 534.960999,390.501099 
	C541.028320,376.319977 547.233337,362.196930 553.494141,348.099701 
	C557.174622,339.812439 561.045227,331.609558 565.077026,322.831543 
	C554.587708,322.754028 549.531921,331.902191 541.326843,334.960510 
	C540.366028,324.616486 537.365662,321.763092 528.715576,323.072754 
	C526.531311,323.403503 524.395081,324.361786 522.356873,325.294128 
	C512.697754,329.712311 505.717010,337.466064 498.637451,344.961182 
	C489.788788,354.329254 482.927979,365.199280 478.165680,377.102417 
	C474.621002,385.962280 468.944031,392.637451 461.390442,397.953827 
	C459.943787,398.972015 457.744751,398.921173 455.892822,399.363556 
	C455.899628,397.380371 455.288849,395.132690 456.007599,393.454407 
	C464.347595,373.980560 472.850647,354.576019 481.407410,335.195923 
	C483.145630,331.259125 485.286865,327.500244 487.784027,322.595367 
	C480.358917,324.632874 473.873047,326.189484 467.560791,328.272217 
	C465.499908,328.952179 463.139008,330.624207 462.201355,332.489136 
	C457.241669,342.353516 452.553284,352.361969 448.037018,362.439728 
	C442.891510,373.921753 439.337341,386.314514 428.292358,394.152893 
	C426.288330,395.575073 424.956787,397.929779 422.984497,399.415497 
	C420.289215,401.445709 417.441742,404.064148 414.355957,404.566803 
	C411.178101,405.084412 406.224396,404.489288 404.549622,402.387482 
	C401.165710,398.140747 399.678162,392.456268 401.754822,386.784363 
	C402.387360,385.056824 403.415527,382.982819 404.879791,382.140472 
	C409.869232,379.270233 415.292755,377.150879 420.263489,374.252472 
	C434.477081,365.964630 444.413147,354.424133 446.988281,337.592010 
	C448.277557,329.164764 441.227295,321.558655 433.309814,323.065491 
	C426.180176,324.422363 420.027740,327.761566 414.686096,332.767212 
	C401.670654,344.964050 391.938751,359.328156 385.512024,375.958557 
	C384.372742,378.906616 383.654053,382.298859 381.694183,384.590607 
	C377.377258,389.638611 372.543030,394.283691 367.587128,398.721558 
	C366.105896,400.047913 363.521454,400.142242 361.442444,400.801056 
	C360.961487,398.986664 360.318176,397.194824 360.061737,395.349243 
	C359.913208,394.280182 360.209381,393.055969 360.609833,392.019135 
	C363.197968,385.317749 365.461182,378.449921 368.594757,372.008240 
	C376.491669,355.774292 384.793335,339.737244 393.028381,323.431946 
	C386.144714,321.710815 382.964935,325.941284 379.903290,330.883331 
	C372.833679,342.295013 365.261566,349.340790 357.582886,352.311127 
	C360.171082,345.377808 363.074738,338.280304 365.374268,330.992218 
	C366.000793,329.006409 365.582611,325.410248 364.252472,324.417603 
	C362.652069,323.223206 359.303650,323.301819 357.171722,324.083405 
	C349.887726,326.753754 346.350281,333.478271 343.222687,339.722931 
	C339.303345,347.548370 334.073090,355.665833 339.434814,365.213959 
	C339.944183,366.121033 338.644989,368.409088 337.700317,369.701385 
	C334.364410,374.264862 331.003906,378.835907 327.303314,383.100861 
	C322.661133,388.450989 317.821259,393.652283 312.759216,398.603485 
	C310.912262,400.409943 308.183258,401.314606 305.856628,402.630676 
	C305.384003,402.211639 304.911407,401.792572 304.438782,401.373535 
	C305.136932,397.573944 305.263153,393.553711 306.629608,390.011993 
	C313.506561,372.187958 320.526947,354.414154 327.838928,336.764343 
	C337.432404,313.607330 347.357086,290.587616 357.108826,267.496002 
	C358.643188,263.862762 360.016113,260.161377 361.463654,256.491486 
	C361.017365,256.143433 360.571045,255.795364 360.124756,255.447311 
	C354.960938,256.661987 349.814056,257.955841 344.627289,259.062988 
	C341.270721,259.779480 339.240784,261.546021 337.943542,264.831665 
	C334.123108,274.507904 330.056946,284.089050 325.971191,293.657990 
	C320.975037,305.359161 315.861450,317.010193 310.461487,329.460175 
	C309.002808,324.214020 305.998535,323.041809 301.713928,322.900909 
	C293.503632,322.630859 287.350250,326.893219 281.834229,331.834595 
	C267.257080,344.893036 256.036560,360.471771 248.670395,378.709778 
	C247.892471,380.635834 247.332108,382.835175 246.012436,384.324249 
	C240.871353,390.125305 235.603180,395.831573 230.082825,401.269104 
	C228.132690,403.190002 225.325699,404.241028 222.170715,406.132355 
	C222.170715,402.872498 221.649948,401.003021 222.256821,399.633148 
	C225.708908,391.840820 229.573196,384.231171 233.028488,376.440186 
	C239.130661,362.681030 245.298401,348.939026 250.856369,334.958344 
	C252.341003,331.223877 251.459976,325.708282 247.828354,323.894653 
	C245.039703,322.502106 240.131332,323.642365 236.930664,325.214081 
	C232.807281,327.238953 229.163834,330.528503 225.820450,333.792419 
	C219.564392,339.899750 213.673050,346.380676 207.470215,352.511536 
	C207.191528,352.198334 207.072601,352.079803 206.997864,351.578857 
	C211.345184,341.945557 215.648300,332.694672 220.401367,322.476532 
	C213.142319,324.495728 206.840210,326.223602 200.561890,328.033936 
	C199.931686,328.215668 199.217468,328.782959 198.926056,329.363892 
	C191.588913,343.990814 183.120209,358.198578 177.388870,373.434937 
	C172.931671,385.284027 165.984222,393.860229 155.898788,400.592499 
	C151.500565,403.528473 148.359985,401.908356 148.020645,396.550995 
	C147.937439,395.237518 147.917252,393.864075 148.202148,392.593048 
	C149.400589,387.246338 150.216949,381.737091 152.127823,376.645630 
	C154.757538,369.638763 157.674606,362.601990 161.574783,356.258118 
	C164.180435,352.019836 168.710541,348.964752 172.379425,345.380157 
	C172.258438,344.932617 172.137436,344.485046 172.016434,344.037506 
	C169.755295,343.881714 167.494141,343.725952 165.020111,343.555481 
	C175.971802,315.425995 187.865570,287.932343 209.296555,266.091156 
	C198.312546,260.178680 186.826324,259.772827 175.738113,261.289185 
	C156.133392,263.970123 139.781952,274.363159 125.987473,287.883179 
	C115.705360,297.960724 107.337120,309.976807 97.938072,320.977051 
	C94.527016,324.969208 93.040985,330.723419 86.641098,332.058044 
	C67.854187,335.975800 50.493790,343.654083 34.614422,354.237610 
	C20.500984,363.644196 6.009906,373.097015 1.000000,391.000000 
M474.993622,296.757690 
	C472.343719,300.822205 473.182922,302.546936 477.491425,305.191559 
	C482.925446,308.527069 490.305328,306.167053 495.058655,301.012421 
	C504.992584,299.890625 515.135742,299.679260 524.816284,297.454742 
	C544.096985,293.024292 563.096558,287.383179 582.262390,282.436432 
	C601.695129,277.420807 621.327942,274.107147 642.586121,276.939270 
	C640.569641,275.221375 639.323547,273.991302 637.916016,272.987579 
	C627.296997,265.415161 615.155273,262.268005 602.404663,262.149475 
	C592.717407,262.059448 582.974854,262.968719 573.335205,264.100311 
	C563.650085,265.237244 554.008667,266.934845 544.443665,268.861359 
	C529.778259,271.815155 515.146790,274.978149 500.123657,271.962463 
	C482.041992,268.332764 470.945221,254.009094 471.223511,236.803131 
	C471.424469,224.378159 476.123627,212.734558 484.367188,203.318436 
	C499.027618,186.572739 516.651550,174.215332 538.925171,169.510529 
	C550.744202,167.014023 562.543884,165.842484 574.462830,168.797272 
	C581.933167,170.649246 589.428284,172.401520 598.148315,174.495270 
	C595.609802,172.446213 593.926697,171.053833 592.208679,169.705917 
	C572.060364,153.897858 549.347290,148.034225 524.504456,154.399948 
	C499.787781,160.733353 477.447601,172.034103 459.596466,190.913467 
	C444.101715,207.300751 436.028870,226.313629 438.976013,249.255173 
	C440.525513,261.316803 445.299774,272.017731 454.057404,280.263519 
	C460.406067,286.241119 468.063660,290.828552 474.993622,296.757690 
M678.129150,259.141296 
	C690.264404,242.077072 702.818115,225.291138 714.408081,207.864273 
	C724.438843,192.781799 731.879700,176.311874 736.658447,158.724167 
	C740.709656,143.813843 741.472046,128.771683 738.297974,113.670853 
	C734.756531,96.821892 725.641052,82.995522 713.036133,71.706673 
	C698.751404,58.913345 681.125671,54.950569 666.188904,68.508308 
	C664.868469,66.915527 663.725769,64.991661 662.095032,63.669796 
	C656.689514,59.287991 651.574951,54.238064 645.508362,51.037617 
	C625.738525,40.608112 604.389893,57.307293 606.289001,76.797791 
	C607.063660,84.748383 610.408691,92.668427 613.699585,100.109100 
	C620.997864,116.610596 632.571228,130.428833 643.278687,144.746872 
	C655.278809,160.793442 667.781799,176.486588 675.180237,195.446121 
	C681.016357,210.402206 682.474670,225.779419 680.114685,241.559372 
	C679.244446,247.378296 677.990112,253.139771 676.427490,259.201294 
	C676.400635,259.616272 676.373779,260.031219 676.346924,260.446198 
	C676.735046,260.100525 677.123108,259.754852 678.129150,259.141296 
M606.639099,195.884796 
	C605.647461,195.002686 604.759766,193.953247 603.648804,193.263199 
	C582.213928,179.949829 559.377808,174.761932 534.402100,180.926941 
	C516.554810,185.332352 509.324097,193.933655 508.857391,211.917389 
	C508.830109,212.967972 507.437653,214.633224 506.395020,214.901093 
	C499.972565,216.550980 495.379059,220.725922 491.122314,225.403244 
	C485.472931,231.610809 484.911591,238.916489 486.835358,246.664307 
	C488.855042,254.798599 494.538239,259.792725 502.341003,260.701141 
	C511.091858,261.719971 520.193115,261.907379 528.895508,260.692047 
	C544.952637,258.449646 560.767822,254.517838 576.799622,252.038315 
	C592.771912,249.567993 608.755798,250.100052 624.161011,255.720230 
	C632.132202,258.628265 639.916687,262.048035 649.327148,265.861298 
	C645.883057,255.345169 643.360474,245.491135 639.462463,236.215042 
	C632.609436,219.906860 621.335693,206.835800 606.639099,195.884796 
M584.890381,390.622559 
	C584.508606,391.318695 584.231079,392.102722 583.729431,392.697784 
	C576.824768,400.888031 583.011841,419.331604 594.654907,421.324524 
	C607.158020,423.464661 617.466675,419.185486 627.113647,413.160461 
	C642.359009,403.639008 652.715881,389.273529 660.091675,373.233124 
	C666.298035,359.735687 670.812195,345.455811 675.986511,331.489349 
	C681.221313,317.359497 686.401978,303.208710 691.439880,289.007996 
	C691.978699,287.489288 691.616516,285.522949 691.205750,283.880951 
	C691.096313,283.443420 688.888550,282.897949 688.269592,283.319763 
	C682.746704,287.083679 676.278259,290.173126 672.214966,295.185272 
	C667.133484,301.453278 663.372314,309.069122 660.286438,316.612549 
	C655.623047,328.012238 651.997314,339.839020 647.999756,351.507996 
	C641.970703,369.107300 638.290100,387.741943 624.131836,401.569916 
	C619.443665,406.148712 614.527893,409.968933 608.287415,411.837219 
	C603.902222,413.150024 599.611145,411.087555 599.186340,406.480408 
	C598.719360,401.415100 599.935303,396.177643 600.567139,391.033539 
	C601.051331,387.091766 601.767273,383.178497 602.380188,379.252533 
	C601.859802,378.854218 601.339417,378.455902 600.819031,378.057587 
	C598.269287,379.476532 595.479553,380.594818 593.230225,382.390137 
	C590.384338,384.661743 587.978271,387.484314 584.890381,390.622559 
M787.055237,168.678329 
	C790.361816,164.624435 793.291443,160.173386 797.054932,156.600830 
	C804.472412,149.559753 813.553467,146.321136 823.845337,147.035599 
	C827.708069,147.303741 830.942383,149.529526 831.770447,153.081894 
	C832.650146,156.855423 832.765808,161.244278 827.176514,164.262573 
	C827.525208,161.827347 827.694458,160.253326 827.983459,158.701584 
	C828.805786,154.286179 826.336792,151.188110 822.709778,150.588287 
	C820.505188,150.223694 817.446777,152.574280 815.421143,154.418320 
	C814.021667,155.692230 813.640625,158.154114 812.964172,160.139542 
	C811.189026,165.349457 813.054932,169.975983 818.102661,171.510269 
	C827.292236,174.303482 835.724915,171.934784 843.044373,166.165512 
	C844.760437,164.812912 845.525818,161.727722 845.907593,159.309998 
	C846.956238,152.669464 842.363220,148.993271 837.876648,145.381042 
	C826.136475,135.928848 814.575195,134.435593 803.182434,140.981750 
	C795.583435,145.348038 790.248840,152.077347 786.055420,159.417038 
	C776.403809,176.310257 767.116516,193.422546 758.110229,210.669815 
	C751.542053,223.248154 742.964294,233.702057 730.358398,240.760269 
	C731.663086,240.878662 733.084106,241.052078 734.007874,240.455566 
	C740.129456,236.502823 747.155029,233.314499 751.952820,228.098770 
	C758.818909,220.634491 764.668579,212.019806 769.787964,203.219055 
	C776.131104,192.314316 781.283691,180.717072 787.055237,168.678329 
M823.002869,218.412521 
	C822.346436,215.344086 822.389404,211.880554 820.916504,209.273392 
	C813.223633,195.656525 800.689087,194.847534 791.678772,201.448914 
	C781.771362,208.707581 772.800232,217.472122 764.383972,226.480148 
	C753.946472,237.651581 744.388062,249.580429 727.478638,250.686432 
	C740.265198,251.592743 751.092163,246.865372 760.071533,238.268219 
	C769.433105,229.305084 777.786743,219.274796 787.300842,210.490631 
	C793.438049,204.824387 801.487122,203.143219 809.648193,206.182312 
	C811.487915,206.867386 813.434448,209.478210 813.745361,211.452362 
	C814.076172,213.553101 812.523071,215.950531 811.792603,218.218399 
	C811.195312,217.984543 810.598083,217.750671 810.000854,217.516815 
	C810.548706,216.277176 811.712830,214.924011 811.509949,213.822662 
	C811.141785,211.824005 810.413513,208.842087 809.028320,208.287689 
	C805.606262,206.918045 802.541382,208.589645 801.005981,212.048737 
	C799.565796,215.293549 798.584473,218.971558 802.042786,221.430130 
	C807.735840,225.477402 818.950073,225.165497 823.002869,218.412521 
z"/>
<path fill="#12514A" opacity="1.000000" stroke="none" 
	d="
M207.629974,352.706207 
	C213.673050,346.380676 219.564392,339.899750 225.820450,333.792419 
	C229.163834,330.528503 232.807281,327.238953 236.930664,325.214081 
	C240.131332,323.642365 245.039703,322.502106 247.828354,323.894653 
	C251.459976,325.708282 252.341003,331.223877 250.856369,334.958344 
	C245.298401,348.939026 239.130661,362.681030 233.028488,376.440186 
	C229.573196,384.231171 225.708908,391.840820 222.256821,399.633148 
	C221.649948,401.003021 222.170715,402.872498 222.170715,406.132355 
	C225.325699,404.241028 228.132690,403.190002 230.082825,401.269104 
	C235.603180,395.831573 240.871353,390.125305 246.012436,384.324249 
	C247.332108,382.835175 247.892471,380.635834 248.670395,378.709778 
	C256.036560,360.471771 267.257080,344.893036 281.834229,331.834595 
	C287.350250,326.893219 293.503632,322.630859 301.713928,322.900909 
	C305.998535,323.041809 309.002808,324.214020 310.461487,329.460175 
	C315.861450,317.010193 320.975037,305.359161 325.971191,293.657990 
	C330.056946,284.089050 334.123108,274.507904 337.943542,264.831665 
	C339.240784,261.546021 341.270721,259.779480 344.627289,259.062988 
	C349.814056,257.955841 354.960938,256.661987 360.124756,255.447311 
	C360.571045,255.795364 361.017365,256.143433 361.463654,256.491486 
	C360.016113,260.161377 358.643188,263.862762 357.108826,267.496002 
	C347.357086,290.587616 337.432404,313.607330 327.838928,336.764343 
	C320.526947,354.414154 313.506561,372.187958 306.629608,390.011993 
	C305.263153,393.553711 305.136932,397.573944 304.438782,401.373535 
	C304.911407,401.792572 305.384003,402.211639 305.856628,402.630676 
	C308.183258,401.314606 310.912262,400.409943 312.759216,398.603485 
	C317.821259,393.652283 322.661133,388.450989 327.303314,383.100861 
	C331.003906,378.835907 334.364410,374.264862 337.700317,369.701385 
	C338.644989,368.409088 339.944183,366.121033 339.434814,365.213959 
	C334.073090,355.665833 339.303345,347.548370 343.222687,339.722931 
	C346.350281,333.478271 349.887726,326.753754 357.171722,324.083405 
	C359.303650,323.301819 362.652069,323.223206 364.252472,324.417603 
	C365.582611,325.410248 366.000793,329.006409 365.374268,330.992218 
	C363.074738,338.280304 360.171082,345.377808 357.582886,352.311127 
	C365.261566,349.340790 372.833679,342.295013 379.903290,330.883331 
	C382.964935,325.941284 386.144714,321.710815 393.028381,323.431946 
	C384.793335,339.737244 376.491669,355.774292 368.594757,372.008240 
	C365.461182,378.449921 363.197968,385.317749 360.609833,392.019135 
	C360.209381,393.055969 359.913208,394.280182 360.061737,395.349243 
	C360.318176,397.194824 360.961487,398.986664 361.442444,400.801056 
	C363.521454,400.142242 366.105896,400.047913 367.587128,398.721558 
	C372.543030,394.283691 377.377258,389.638611 381.694183,384.590607 
	C383.654053,382.298859 384.372742,378.906616 385.512024,375.958557 
	C391.938751,359.328156 401.670654,344.964050 414.686096,332.767212 
	C420.027740,327.761566 426.180176,324.422363 433.309814,323.065491 
	C441.227295,321.558655 448.277557,329.164764 446.988281,337.592010 
	C444.413147,354.424133 434.477081,365.964630 420.263489,374.252472 
	C415.292755,377.150879 409.869232,379.270233 404.879791,382.140472 
	C403.415527,382.982819 402.387360,385.056824 401.754822,386.784363 
	C399.678162,392.456268 401.165710,398.140747 404.549622,402.387482 
	C406.224396,404.489288 411.178101,405.084412 414.355957,404.566803 
	C417.441742,404.064148 420.289215,401.445709 422.984497,399.415497 
	C424.956787,397.929779 426.288330,395.575073 428.292358,394.152893 
	C439.337341,386.314514 442.891510,373.921753 448.037018,362.439728 
	C452.553284,352.361969 457.241669,342.353516 462.201355,332.489136 
	C463.139008,330.624207 465.499908,328.952179 467.560791,328.272217 
	C473.873047,326.189484 480.358917,324.632874 487.784027,322.595367 
	C485.286865,327.500244 483.145630,331.259125 481.407410,335.195923 
	C472.850647,354.576019 464.347595,373.980560 456.007599,393.454407 
	C455.288849,395.132690 455.899628,397.380371 455.892822,399.363556 
	C457.744751,398.921173 459.943787,398.972015 461.390442,397.953827 
	C468.944031,392.637451 474.621002,385.962280 478.165680,377.102417 
	C482.927979,365.199280 489.788788,354.329254 498.637451,344.961182 
	C505.717010,337.466064 512.697754,329.712311 522.356873,325.294128 
	C524.395081,324.361786 526.531311,323.403503 528.715576,323.072754 
	C537.365662,321.763092 540.366028,324.616486 541.326843,334.960510 
	C549.531921,331.902191 554.587708,322.754028 565.077026,322.831543 
	C561.045227,331.609558 557.174622,339.812439 553.494141,348.099701 
	C547.233337,362.196930 541.028320,376.319977 534.960999,390.501099 
	C533.901367,392.977844 533.251831,395.770996 533.094849,398.457825 
	C532.892883,401.915192 535.419800,403.271057 538.192810,401.141510 
	C541.830322,398.348083 545.238342,395.208801 548.464722,391.941345 
	C551.187866,389.183441 553.511169,386.030701 556.597717,383.370270 
	C555.299561,389.467926 556.089050,396.062042 550.807861,400.806915 
	C542.605225,408.176575 534.690979,415.880493 526.259521,422.973175 
	C524.074158,424.811584 520.390076,425.716431 517.448364,425.606537 
	C513.164734,425.446472 510.146423,418.571136 511.165619,413.392242 
	C511.977905,409.264618 512.367554,405.053802 513.298218,400.322174 
	C513.702637,398.961517 513.753601,398.158569 513.848450,396.664581 
	C513.089355,397.997559 512.713745,398.656982 512.338196,399.316437 
	C506.758942,405.508423 501.320831,411.836823 495.531158,417.825378 
	C493.205109,420.231293 490.309418,422.285889 487.322327,423.815796 
	C478.531036,428.318512 471.167725,423.676453 471.011475,413.750305 
	C470.948578,409.754730 471.001099,405.757385 471.001099,400.599091 
	C469.243195,402.312286 468.071075,403.485992 466.865479,404.624237 
	C461.220795,409.953583 455.719543,415.449066 449.860596,420.531982 
	C446.199615,423.708069 442.070648,427.110565 436.713928,424.838409 
	C433.208435,423.351501 430.987823,414.254028 432.225677,409.193420 
	C432.644379,407.481812 432.757507,405.695435 433.321960,403.404480 
	C433.699432,402.411407 433.765228,401.957123 433.831024,401.502808 
	C433.356415,401.755463 432.881836,402.008148 432.407257,402.260803 
	C424.494751,409.497986 417.309357,417.577850 407.337006,422.326050 
	C401.465271,425.121735 395.306183,427.034302 389.285858,424.754395 
	C385.983398,423.503693 382.539215,419.928833 381.281158,416.599915 
	C379.311615,411.388428 379.140472,405.497284 378.419525,401.167084 
	C370.312073,407.716400 361.414520,415.346649 351.997559,422.270447 
	C348.713104,424.685303 344.447479,428.201080 339.812500,424.239044 
	C335.075989,420.190186 335.311462,414.469604 336.348907,409.255066 
	C339.447510,393.681030 347.581635,380.355865 356.178162,367.306152 
	C356.618317,366.638000 356.924683,365.881622 357.736938,364.702728 
	C358.326080,363.901611 358.471619,363.564056 358.617126,363.226501 
	C358.053345,363.457062 357.489594,363.687622 356.925842,363.918213 
	C347.381927,365.096130 344.154633,373.446045 339.056427,379.666473 
	C334.949982,384.676849 331.053223,389.873901 326.727905,394.686523 
	C320.656128,401.442474 314.497620,408.153473 307.937927,414.425232 
	C304.124481,418.071228 299.730347,421.325592 295.105713,423.858154 
	C287.732178,427.896179 282.923279,424.817017 283.069550,416.403442 
	C283.173340,410.432617 283.913483,404.472870 284.362335,398.602875 
	C281.427307,402.096436 278.184937,405.803741 275.111908,409.646515 
	C269.359344,416.840088 262.823486,422.779968 253.571884,425.246582 
	C249.457275,426.343597 247.099625,425.176117 244.868774,421.697113 
	C240.985565,415.641296 242.240997,409.020081 242.000107,402.534393 
	C241.976913,401.910309 241.939117,401.286713 241.967010,401.847412 
	C233.264313,408.879242 224.241196,416.435577 214.873886,423.537964 
	C212.733612,425.160736 209.446625,425.607727 206.614960,425.904266 
	C202.201477,426.366547 199.410431,422.771759 198.972519,417.195618 
	C198.327515,408.982605 200.713699,401.390137 204.054367,394.181335 
	C210.375198,380.541595 217.201538,367.136810 223.724594,353.589508 
	C224.804871,351.345947 225.411865,348.874481 226.237579,346.508362 
	C225.844727,346.201904 225.451874,345.895416 225.059021,345.588928 
	C221.751968,348.514954 218.049240,351.104218 215.215912,354.433380 
	C208.190628,362.688171 200.686447,370.743195 195.057816,379.911743 
	C190.715836,386.984406 188.874329,395.605927 186.027863,403.576965 
	C184.627625,407.498047 182.772095,411.442535 182.406113,415.492432 
	C182.068420,419.229095 179.870102,420.036560 177.320419,420.899567 
	C172.327301,422.589630 167.270081,424.090302 161.979691,425.750885 
	C163.334396,419.411621 164.671265,413.155731 166.321762,406.380371 
	C166.699463,405.402588 166.763535,404.944336 166.827606,404.486084 
	C166.350494,404.738495 165.873383,404.990906 165.396271,405.243317 
	C158.199875,411.069702 151.220474,417.193848 143.746750,422.639648 
	C136.098679,428.212494 129.403870,425.375275 126.763481,416.391205 
	C124.244659,407.820740 127.559906,400.021454 129.518265,392.083374 
	C131.707840,383.208099 134.462814,374.472290 136.815277,366.224304 
	C125.347481,360.835632 114.017136,355.511566 102.358444,350.033203 
	C94.580849,367.771454 86.848602,385.623505 85.076027,405.319214 
	C84.586632,410.757050 84.927879,416.277588 85.024864,421.757751 
	C85.102081,426.121460 84.919617,429.713593 78.986588,430.155914 
	C71.422089,430.719788 63.918907,432.106293 56.456261,433.129089 
	C58.032997,401.577057 66.732582,372.538940 81.803558,345.606171 
	C69.279182,345.442627 58.367558,350.189178 47.996700,356.118744 
	C41.637264,359.754791 35.182842,363.231934 30.604729,369.666809 
	C26.606190,375.287048 27.651352,379.996765 30.569483,384.992645 
	C34.352200,391.468750 33.983021,393.798706 27.405558,396.827209 
	C22.914015,398.895294 18.245291,400.683350 13.503314,402.078308 
	C6.256370,404.210144 2.900714,401.826172 1.351937,394.143555 
	C1.000000,393.250000 1.000000,392.500000 1.000000,391.375000 
	C6.009906,373.097015 20.500984,363.644196 34.614422,354.237610 
	C50.493790,343.654083 67.854187,335.975800 86.641098,332.058044 
	C93.040985,330.723419 94.527016,324.969208 97.938072,320.977051 
	C107.337120,309.976807 115.705360,297.960724 125.987473,287.883179 
	C139.781952,274.363159 156.133392,263.970123 175.738113,261.289185 
	C186.826324,259.772827 198.312546,260.178680 209.296555,266.091156 
	C187.865570,287.932343 175.971802,315.425995 165.020111,343.555481 
	C167.494141,343.725952 169.755295,343.881714 172.016434,344.037506 
	C172.137436,344.485046 172.258438,344.932617 172.379425,345.380157 
	C168.710541,348.964752 164.180435,352.019836 161.574783,356.258118 
	C157.674606,362.601990 154.757538,369.638763 152.127823,376.645630 
	C150.216949,381.737091 149.400589,387.246338 148.202148,392.593048 
	C147.917252,393.864075 147.937439,395.237518 148.020645,396.550995 
	C148.359985,401.908356 151.500565,403.528473 155.898788,400.592499 
	C165.984222,393.860229 172.931671,385.284027 177.388870,373.434937 
	C183.120209,358.198578 191.588913,343.990814 198.926056,329.363892 
	C199.217468,328.782959 199.931686,328.215668 200.561890,328.033936 
	C206.840210,326.223602 213.142319,324.495728 220.401367,322.476532 
	C215.648300,332.694672 211.345184,341.945557 206.680145,351.712952 
	C205.911484,353.349701 205.504730,354.469910 205.097961,355.590088 
	C205.338455,355.678955 205.578949,355.767853 205.819427,355.856720 
	C206.422943,354.806549 207.026474,353.756378 207.629974,352.706207 
M137.042267,295.480408 
	C127.939522,305.520172 120.409431,316.628723 114.314125,327.572693 
	C125.964516,330.182526 137.261047,332.713074 148.941895,335.329742 
	C158.878983,311.806946 172.061539,289.411835 188.344208,268.390106 
	C182.860291,265.430573 177.633621,267.085785 172.979828,268.689758 
	C158.493164,273.682709 146.875778,282.853180 137.042267,295.480408 
M493.927704,390.471161 
	C493.618042,392.709686 493.034119,394.950989 493.056610,397.186157 
	C493.101471,401.636688 496.838165,403.608093 500.393524,400.921387 
	C503.181915,398.814301 505.933624,396.389099 507.933990,393.562042 
	C512.848389,386.616791 518.223694,379.774597 521.748962,372.123962 
	C526.555969,361.691620 529.982483,350.600830 533.553284,339.646484 
	C534.061157,338.088470 532.487854,335.236938 531.035522,333.897247 
	C530.228760,333.153076 527.060608,333.672424 526.022583,334.699463 
	C521.476562,339.197662 516.474243,343.572357 513.190979,348.941803 
	C505.354065,361.758240 497.647583,374.762573 493.927704,390.471161 
M304.000580,337.751221 
	C302.998657,332.670959 300.098175,331.383270 296.072540,334.548004 
	C293.608978,336.484741 290.981079,338.624115 289.450958,341.265625 
	C282.697540,352.924164 276.018036,364.647308 269.935059,376.662598 
	C267.215607,382.034119 265.560944,388.059265 264.248444,393.971039 
	C263.737610,396.271820 264.760529,400.202209 266.450348,401.313141 
	C267.923096,402.281311 271.665070,400.872223 273.769379,399.523102 
	C276.198425,397.965790 278.420074,395.608032 279.882141,393.102142 
	C286.100525,382.443970 292.601807,371.880737 297.802094,360.724548 
	C300.990112,353.885254 302.008209,346.034515 304.000580,337.751221 
M404.990967,371.102142 
	C404.673767,371.928772 404.356567,372.755402 403.900482,373.944000 
	C417.613068,368.026886 425.965881,358.001648 429.726166,344.296753 
	C430.580414,341.183319 430.767365,335.318024 429.359741,334.634186 
	C425.130402,332.579681 422.448181,336.765076 420.063232,339.856995 
	C413.013214,348.996887 408.487488,359.408356 404.990967,371.102142 
z"/>
<path fill="#12514A" opacity="1.000000" stroke="none" 
	d="
M835.397217,387.242188 
	C824.686340,397.575836 814.072693,408.013977 803.176575,418.148499 
	C801.175232,420.009857 798.116638,420.926697 795.388672,421.771027 
	C790.909302,423.157349 786.358154,420.070648 786.067566,415.347382 
	C785.751709,410.214935 785.964294,405.049957 786.269165,399.356079 
	C786.711243,398.304169 786.830627,397.795288 786.950073,397.286438 
	C786.683289,397.091370 786.416565,396.896301 786.149780,396.701233 
	C785.878967,397.233093 785.608154,397.764954 785.337280,398.296844 
	C777.301270,407.680206 769.331360,417.176147 757.121216,421.428467 
	C751.677185,423.324463 746.834961,420.860596 746.139221,415.304016 
	C745.507202,410.256256 746.006226,405.066895 746.320190,399.399780 
	C746.662048,398.326508 746.690247,397.793396 746.718506,397.260315 
	C746.277466,397.588196 745.836487,397.916077 745.395508,398.244019 
	C738.542114,404.719849 731.902222,411.447113 724.724182,417.540527 
	C722.069763,419.793884 718.262451,421.260223 714.778076,421.817627 
	C710.588684,422.487762 707.921631,419.767700 708.055481,415.394928 
	C708.268921,408.418091 708.827698,401.451843 709.233521,394.599945 
	C705.715454,398.754395 701.686707,403.114288 698.120544,407.824432 
	C693.699829,413.663239 688.205078,418.102020 681.581238,420.935608 
	C673.215942,424.514130 667.879211,419.207428 667.018860,409.128387 
	C665.979797,396.953979 669.335083,385.600525 673.904236,374.541870 
	C680.625610,358.274200 690.132324,343.778473 703.485901,332.290833 
	C709.243042,327.338165 716.081421,323.290161 723.029053,320.167145 
	C730.833618,316.658966 735.859070,320.271332 737.046509,328.736969 
	C737.128845,329.324524 737.590576,329.858856 737.977539,330.617279 
	C746.255371,328.109497 751.034180,318.823639 761.358398,318.796631 
	C758.475891,325.066772 755.837952,330.633484 753.343201,336.263672 
	C745.729675,353.445465 737.820068,370.509155 730.757141,387.915619 
	C727.749817,395.327057 727.949585,396.415497 732.073547,399.073761 
	C740.950378,391.111359 750.639709,384.305634 755.259155,371.817261 
	C760.808044,356.816132 768.398499,342.548828 775.554565,328.187836 
	C776.571472,326.147034 779.980042,324.936646 782.530212,324.095093 
	C788.139648,322.244110 793.908020,320.874786 800.431763,319.083649 
	C797.622314,324.714569 794.809875,329.829193 792.463074,335.149200 
	C784.168396,353.952698 776.034424,372.827087 767.828613,391.669891 
	C767.634949,392.114685 767.120972,392.486755 767.082458,392.921631 
	C766.812256,395.968536 764.792725,400.004761 768.559021,401.423584 
	C770.237976,402.056122 773.622437,399.412872 775.663147,397.611115 
	C783.441711,390.743378 789.883240,382.793823 794.293762,373.284607 
	C800.781921,359.296021 807.575806,345.445221 813.817383,331.348816 
	C815.608826,327.302856 817.705994,324.831360 822.143066,323.941101 
	C827.939880,322.778137 833.618591,321.026245 840.060486,319.341431 
	C836.578369,326.866974 833.437073,333.491791 830.433960,340.178680 
	C823.197144,356.292877 815.992676,372.421844 808.867554,388.585602 
	C807.973267,390.614319 807.401794,392.855560 807.093933,395.056152 
	C806.628113,398.385468 808.962158,400.030182 812.039734,398.359131 
	C814.704163,396.912445 817.370056,395.144104 819.419861,392.944366 
	C829.952515,381.640900 840.971863,370.683289 850.405396,358.507904 
	C855.239197,352.269257 856.917603,343.646271 860.363525,336.260101 
	C868.991760,317.766022 877.739136,299.326294 886.603271,280.944092 
	C889.460327,275.019257 892.179321,268.826111 896.206543,263.741943 
	C898.672974,260.628204 903.437073,259.249084 907.297180,257.350952 
	C910.590027,255.731781 914.019104,254.356415 917.470886,253.101196 
	C922.697998,251.200424 925.556396,252.901886 924.844666,258.348694 
	C923.828064,266.128357 922.367859,273.964478 920.004700,281.430786 
	C914.534790,298.712494 904.295288,313.212738 892.104919,326.434723 
	C888.000488,330.886505 883.393250,335.075836 880.228760,340.142670 
	C876.188599,346.611603 873.091614,353.727234 870.106262,360.783325 
	C866.049438,370.371674 862.095642,380.043915 858.936157,389.947662 
	C857.954956,393.023315 859.079590,397.243835 860.479919,400.388123 
	C861.094788,401.768616 865.140442,402.813538 867.068176,402.212891 
	C875.921509,399.454407 882.096375,392.905640 887.940430,386.060181 
	C898.440552,373.760742 900.542358,357.280884 908.947205,343.913452 
	C912.285889,338.603516 914.678101,332.694641 918.067566,327.422516 
	C919.352661,325.423737 922.052551,323.918823 924.421509,323.119568 
	C929.281006,321.480103 934.352600,320.469238 940.560425,318.887970 
	C935.509766,329.398529 930.754639,339.294098 925.681396,349.663574 
	C925.299561,350.595306 925.235840,351.053162 925.172119,351.511017 
	C925.648987,351.259796 926.125854,351.008575 926.602661,350.757355 
	C931.570312,345.122070 936.094849,338.998077 941.625610,333.984009 
	C947.587097,328.579315 954.227539,323.788696 961.077637,319.547150 
	C965.522949,316.794586 971.439819,320.800873 970.792358,326.303040 
	C970.016968,332.892883 968.510376,339.659729 965.863647,345.712921 
	C959.916504,359.314117 953.027527,372.501770 946.617737,385.903625 
	C944.961182,389.367310 943.462280,392.937164 942.288818,396.586212 
	C941.805298,398.089722 942.371277,399.930756 942.472595,401.859192 
	C952.688782,398.396912 957.770508,390.077026 963.783813,383.040253 
	C966.669861,379.663025 968.188049,375.018250 969.936279,370.786621 
	C974.403992,359.972382 980.248840,350.025818 987.564209,340.888580 
	C993.523926,333.444672 999.720642,326.123596 1008.633545,322.334106 
	C1012.810913,320.558014 1017.825745,320.098053 1022.441040,320.179321 
	C1027.623413,320.270599 1031.595337,327.943726 1030.810181,333.697357 
	C1028.192627,352.881409 1015.749878,364.214508 999.989563,372.977448 
	C996.456970,374.941620 992.896484,377.012573 989.098572,378.290955 
	C986.299133,379.233215 985.147095,381.206909 985.155579,383.366455 
	C985.172058,387.564178 985.304138,391.982056 986.613220,395.899445 
	C988.332764,401.045166 993.464478,404.341888 1000.466858,399.862366 
	C1006.901489,395.746002 1012.422729,390.058075 1017.875854,384.593109 
	C1022.942017,379.515961 1027.354858,373.790588 1032.117920,368.405884 
	C1034.767700,365.410156 1036.786133,362.937988 1034.422119,358.210266 
	C1032.924561,355.215088 1033.096436,350.272095 1034.542969,347.135864 
	C1038.216309,339.171448 1042.717041,331.525543 1047.575317,324.209534 
	C1049.023315,322.028931 1052.628540,320.637756 1055.461426,320.156708 
	C1060.998169,319.216431 1063.454834,322.172058 1061.691284,327.549469 
	C1059.336792,334.728912 1056.425659,341.725830 1053.211792,350.235931 
	C1058.440063,346.148163 1063.270508,343.197052 1067.012939,339.221710 
	C1071.051270,334.932159 1074.389648,329.875397 1077.439453,324.796631 
	C1080.054199,320.442383 1083.570557,319.380951 1088.563110,320.000305 
	C1089.000000,320.000000 1089.000000,320.500000 1089.000000,320.750000 
	C1082.012939,334.606537 1074.833618,348.118927 1068.110352,361.854584 
	C1064.009521,370.232910 1060.613892,378.956207 1056.887329,387.518402 
	C1056.693237,387.964447 1056.087524,388.395447 1056.144043,388.760437 
	C1056.577759,391.558563 1057.128174,394.338623 1057.642334,397.124329 
	C1059.893066,396.074677 1062.546753,395.475372 1064.318481,393.890289 
	C1069.512939,389.243408 1074.356323,384.204315 1079.823608,379.485229 
	C1078.310059,385.241211 1079.268311,391.781464 1074.109741,396.353973 
	C1066.026001,403.519318 1057.889404,410.625244 1049.746704,417.723572 
	C1048.904175,418.458069 1047.929443,419.107605 1046.911255,419.561829 
	C1043.235229,421.201843 1038.834595,424.092621 1035.678101,420.608124 
	C1033.293213,417.975342 1031.841431,413.155029 1032.282959,409.594574 
	C1033.103027,402.980072 1034.808960,396.206512 1037.591064,390.164490 
	C1042.285034,379.970032 1048.105591,370.294281 1053.499634,360.312775 
	C1046.968872,361.236206 1043.037109,365.626221 1038.842773,370.826874 
	C1028.569458,383.564758 1017.913086,396.079041 1006.447327,407.735413 
	C1000.385986,413.897430 993.157654,418.948212 983.997314,421.316071 
	C971.866516,424.451813 963.859741,416.447540 963.031189,404.967957 
	C962.830933,402.193329 963.001526,399.391998 963.001526,395.349518 
	C957.881226,400.527863 953.697754,405.159607 949.087280,409.317871 
	C943.582458,414.282745 937.986877,419.140839 930.473572,421.190369 
	C923.546143,423.080139 919.359009,420.412048 919.004211,413.208008 
	C918.544556,403.876373 921.567993,395.343597 925.457947,387.138092 
	C931.784119,373.793457 938.453064,360.611572 944.908325,347.327484 
	C945.591003,345.922729 945.812134,344.293640 946.400696,342.231537 
	C944.960815,342.720825 943.892395,342.765015 943.332825,343.321167 
	C931.982910,354.603058 919.881714,365.476837 913.163025,380.301788 
	C908.815063,389.895935 906.203857,400.294220 903.064636,410.409821 
	C901.989563,413.874207 900.889893,416.350769 896.710388,417.214569 
	C891.878784,418.213074 887.292786,420.399841 881.892578,422.322662 
	C883.751648,414.372894 885.481506,406.975677 887.315430,399.133514 
	C880.274780,405.146118 873.809937,410.895050 867.070923,416.302460 
	C864.601990,418.283508 861.559265,419.620483 858.642944,420.955658 
	C854.630554,422.792664 850.762024,422.564453 847.111450,418.774658 
	C840.159058,437.222534 833.334290,455.331848 826.448975,473.601654 
	C820.064087,475.070007 813.220520,476.643829 805.156189,478.498383 
	C808.360046,469.691742 811.067627,462.045990 813.918823,454.454193 
	C819.898621,438.532196 825.950012,422.637115 831.983887,406.735474 
	C832.606140,405.095764 833.199158,403.430603 833.994690,401.873779 
	C836.101013,397.751740 836.685547,393.429260 836.316406,388.377808 
	C836.701050,387.403625 836.764709,386.945068 836.828369,386.486511 
	C836.351318,386.738434 835.874268,386.990295 835.397217,387.242188 
M888.091614,320.281982 
	C890.109192,317.955994 892.090027,315.596924 894.150757,313.309723 
	C903.317322,303.135284 909.625488,291.220551 914.579834,278.624420 
	C916.185486,274.542358 917.377014,269.790222 914.326233,264.098633 
	C901.721375,281.807343 894.640320,301.029724 886.373352,320.127380 
	C886.305908,320.572662 886.238525,321.017914 886.171082,321.463226 
	C886.643982,321.220795 887.116821,320.978363 888.091614,320.281982 
M702.500122,391.979156 
	C703.554932,390.916412 704.842651,390.002167 705.629150,388.768433 
	C715.604675,373.121063 725.570068,357.424286 728.925354,338.741760 
	C729.400940,336.093323 728.163147,333.137146 727.718445,330.323425 
	C724.950317,331.251587 721.408203,331.410889 719.569336,333.262054 
	C715.251160,337.609253 711.441650,342.556854 707.976196,347.636658 
	C700.227722,358.994629 694.376526,371.357147 690.305786,384.480469 
	C688.738464,389.533203 687.145447,395.030853 693.434631,399.431885 
	C696.258423,397.138153 699.121521,394.812531 702.500122,391.979156 
M991.051697,359.730408 
	C990.070923,363.030884 989.090088,366.331390 988.027588,369.906921 
	C988.834717,369.805389 989.330444,369.865967 989.700867,369.678650 
	C1002.873962,363.017334 1011.049011,352.612549 1014.118713,338.027710 
	C1014.779907,334.886139 1015.934509,331.732758 1012.505798,330.574127 
	C1010.850891,330.014954 1007.245972,331.856781 1006.137939,333.623566 
	C1000.944336,341.905029 996.311890,350.538422 991.051697,359.730408 
z"/>
<path fill="#23BBAE" opacity="1.000000" stroke="none" 
	d="
M654.161011,278.026825 
	C654.099365,277.045380 653.646667,275.862335 654.033447,275.112091 
	C662.473206,258.740753 659.385010,242.700256 652.413269,226.957306 
	C643.311401,206.404114 627.990540,190.655106 612.553589,174.753052 
	C594.681580,156.342499 578.262085,136.590912 566.172852,113.624313 
	C558.135620,98.355408 552.405151,82.596848 552.984497,65.030182 
	C553.447693,50.985321 558.502747,38.658112 567.486755,28.118265 
	C581.114258,12.130775 599.019531,4.152045 619.812866,1.362717 
	C630.020874,1.000000 640.041809,1.000000 650.531372,1.000000 
	C658.047546,2.648437 665.093567,4.303157 672.142883,5.943981 
	C686.119934,9.197299 698.623962,15.991809 711.069580,22.706352 
	C720.047058,27.549841 728.832275,32.956474 736.998474,39.055614 
	C756.312439,53.480881 770.371643,71.848312 774.870544,96.056007 
	C778.418030,115.144661 774.094116,133.479385 767.297180,151.300812 
	C757.742920,176.351837 742.193237,197.853088 727.037170,219.630478 
	C720.542053,228.963089 715.040466,238.987228 709.090149,248.698822 
	C708.686340,249.358002 708.305359,250.031235 706.830994,250.273697 
	C708.615967,245.682449 710.011475,240.889221 712.266357,236.541687 
	C717.064880,227.290009 722.484436,218.361710 727.334900,209.135498 
	C737.297913,190.184647 744.774658,170.233444 748.768066,149.211899 
	C753.434509,124.647919 751.215149,100.951271 737.082397,79.376251 
	C726.015991,62.482449 710.039917,51.805916 691.893005,44.107979 
	C676.365601,37.521221 659.969482,33.203533 643.242615,32.439854 
	C634.509888,32.041157 625.346191,35.360611 616.792725,38.236607 
	C606.568909,41.674263 598.864502,48.499226 594.582092,58.885735 
	C590.883179,67.856750 591.421448,76.866081 593.500549,85.919044 
	C597.226929,102.144936 606.083313,115.776299 615.569153,129.127808 
	C630.852966,150.640045 648.523865,170.572189 659.488342,194.968781 
	C665.229614,207.743393 668.272644,221.096466 669.102295,235.110809 
	C669.793701,246.789825 668.920776,258.129883 664.913452,269.884552 
	C661.242493,273.061096 657.701721,275.543945 654.161011,278.026825 
z"/>
<path fill="#6DC9CA" opacity="1.000000" stroke="none" 
	d="
M676.911011,258.927460 
	C677.990112,253.139771 679.244446,247.378296 680.114685,241.559372 
	C682.474670,225.779419 681.016357,210.402206 675.180237,195.446121 
	C667.781799,176.486588 655.278809,160.793442 643.278687,144.746872 
	C632.571228,130.428833 620.997864,116.610596 613.699585,100.109100 
	C610.408691,92.668427 607.063660,84.748383 606.289001,76.797791 
	C604.389893,57.307293 625.738525,40.608112 645.508362,51.037617 
	C651.574951,54.238064 656.689514,59.287991 662.095032,63.669796 
	C663.725769,64.991661 664.868469,66.915527 666.188904,68.508308 
	C681.125671,54.950569 698.751404,58.913345 713.036133,71.706673 
	C725.641052,82.995522 734.756531,96.821892 738.297974,113.670853 
	C741.472046,128.771683 740.709656,143.813843 736.658447,158.724167 
	C731.879700,176.311874 724.438843,192.781799 714.408081,207.864273 
	C702.818115,225.291138 690.264404,242.077072 677.670959,259.153809 
	C677.212769,259.166290 676.911011,258.927460 676.911011,258.927460 
z"/>
<path fill="#6DC9CA" opacity="1.000000" stroke="none" 
	d="
M606.984375,195.993286 
	C621.335693,206.835800 632.609436,219.906860 639.462463,236.215042 
	C643.360474,245.491135 645.883057,255.345169 649.327148,265.861298 
	C639.916687,262.048035 632.132202,258.628265 624.161011,255.720230 
	C608.755798,250.100052 592.771912,249.567993 576.799622,252.038315 
	C560.767822,254.517838 544.952637,258.449646 528.895508,260.692047 
	C520.193115,261.907379 511.091858,261.719971 502.341003,260.701141 
	C494.538239,259.792725 488.855042,254.798599 486.835358,246.664307 
	C484.911591,238.916489 485.472931,231.610809 491.122314,225.403244 
	C495.379059,220.725922 499.972565,216.550980 506.395020,214.901093 
	C507.437653,214.633224 508.830109,212.967972 508.857391,211.917389 
	C509.324097,193.933655 516.554810,185.332352 534.402100,180.926941 
	C559.377808,174.761932 582.213928,179.949829 603.648804,193.263199 
	C604.759766,193.953247 605.647461,195.002686 606.984375,195.993286 
z"/>
<path fill="#23BBAE" opacity="1.000000" stroke="none" 
	d="
M475.137573,296.035919 
	C468.063660,290.828552 460.406067,286.241119 454.057404,280.263519 
	C445.299774,272.017731 440.525513,261.316803 438.976013,249.255173 
	C436.028870,226.313629 444.101715,207.300751 459.596466,190.913467 
	C477.447601,172.034103 499.787781,160.733353 524.504456,154.399948 
	C549.347290,148.034225 572.060364,153.897858 592.208679,169.705917 
	C593.926697,171.053833 595.609802,172.446213 598.148315,174.495270 
	C589.428284,172.401520 581.933167,170.649246 574.462830,168.797272 
	C562.543884,165.842484 550.744202,167.014023 538.925171,169.510529 
	C516.651550,174.215332 499.027618,186.572739 484.367188,203.318436 
	C476.123627,212.734558 471.424469,224.378159 471.223511,236.803131 
	C470.945221,254.009094 482.041992,268.332764 500.123657,271.962463 
	C515.146790,274.978149 529.778259,271.815155 544.443665,268.861359 
	C554.008667,266.934845 563.650085,265.237244 573.335205,264.100311 
	C582.974854,262.968719 592.717407,262.059448 602.404663,262.149475 
	C615.155273,262.268005 627.296997,265.415161 637.916016,272.987579 
	C639.323547,273.991302 640.569641,275.221375 642.586121,276.939270 
	C621.327942,274.107147 601.695129,277.420807 582.262390,282.436432 
	C563.096558,287.383179 544.096985,293.024292 524.816284,297.454742 
	C515.135742,299.679260 504.992584,299.890625 494.666809,300.689270 
	C497.175018,293.571075 500.075073,286.776001 503.127075,279.937958 
	C503.194000,279.939484 503.108978,279.983978 502.652893,280.006287 
	C496.715179,283.369781 491.458221,283.995850 486.972351,277.308716 
	C485.511444,280.065643 484.598145,282.157227 483.365509,284.039764 
	C480.709900,288.095459 477.890137,292.043701 475.137573,296.035919 
z"/>
<path fill="#12514A" opacity="1.000000" stroke="none" 
	d="
M585.136475,390.345917 
	C587.978271,387.484314 590.384338,384.661743 593.230225,382.390137 
	C595.479553,380.594818 598.269287,379.476532 600.819031,378.057587 
	C601.339417,378.455902 601.859802,378.854218 602.380188,379.252533 
	C601.767273,383.178497 601.051331,387.091766 600.567139,391.033539 
	C599.935303,396.177643 598.719360,401.415100 599.186340,406.480408 
	C599.611145,411.087555 603.902222,413.150024 608.287415,411.837219 
	C614.527893,409.968933 619.443665,406.148712 624.131836,401.569916 
	C638.290100,387.741943 641.970703,369.107300 647.999756,351.507996 
	C651.997314,339.839020 655.623047,328.012238 660.286438,316.612549 
	C663.372314,309.069122 667.133484,301.453278 672.214966,295.185272 
	C676.278259,290.173126 682.746704,287.083679 688.269592,283.319763 
	C688.888550,282.897949 691.096313,283.443420 691.205750,283.880951 
	C691.616516,285.522949 691.978699,287.489288 691.439880,289.007996 
	C686.401978,303.208710 681.221313,317.359497 675.986511,331.489349 
	C670.812195,345.455811 666.298035,359.735687 660.091675,373.233124 
	C652.715881,389.273529 642.359009,403.639008 627.113647,413.160461 
	C617.466675,419.185486 607.158020,423.464661 594.654907,421.324524 
	C583.011841,419.331604 576.824768,400.888031 583.729431,392.697784 
	C584.231079,392.102722 584.508606,391.318695 585.136475,390.345917 
z"/>
<path fill="#12514A" opacity="1.000000" stroke="none" 
	d="
M654.009705,278.344482 
	C657.701721,275.543945 661.242493,273.061096 664.940796,270.274048 
	C672.430969,266.459076 679.586731,262.497833 687.134277,259.534210 
	C701.485535,253.899063 716.014954,253.354370 730.410950,259.791168 
	C735.419617,262.030670 740.321838,265.170563 746.147217,262.052795 
	C746.569519,261.826752 747.341736,262.254517 748.505005,262.490753 
	C743.937561,272.598511 739.310486,282.372406 728.792419,286.828369 
	C725.074524,288.403442 719.980652,288.235992 715.932190,287.212921 
	C707.419189,285.061707 699.136353,281.946686 690.842773,278.992462 
	C678.340271,274.538971 667.297485,278.387848 657.824829,286.035370 
	C650.532959,291.922272 644.318420,299.277100 638.249390,306.503693 
	C633.235352,312.474121 633.817810,319.072052 638.675903,325.134033 
	C642.170166,329.494202 642.227112,332.842712 637.812439,336.507538 
	C633.531677,340.061127 628.932800,343.552856 623.901489,345.778168 
	C619.943298,347.528809 617.146301,344.847473 615.916565,340.403107 
	C613.028259,329.964355 617.792786,321.265015 622.580505,313.057007 
	C629.741394,300.780548 640.136963,291.005280 650.331604,281.204437 
	C651.365967,280.210083 652.676208,279.502686 654.009705,278.344482 
z"/>
<path fill="#04897D" opacity="1.000000" stroke="none" 
	d="
M787.002930,169.048645 
	C781.283691,180.717072 776.131104,192.314316 769.787964,203.219055 
	C764.668579,212.019806 758.818909,220.634491 751.952820,228.098770 
	C747.155029,233.314499 740.129456,236.502823 734.007874,240.455566 
	C733.084106,241.052078 731.663086,240.878662 730.358398,240.760269 
	C742.964294,233.702057 751.542053,223.248154 758.110229,210.669815 
	C767.116516,193.422546 776.403809,176.310257 786.055420,159.417038 
	C790.248840,152.077347 795.583435,145.348038 803.182434,140.981750 
	C814.575195,134.435593 826.136475,135.928848 837.876648,145.381042 
	C842.363220,148.993271 846.956238,152.669464 845.907593,159.309998 
	C845.525818,161.727722 844.760437,164.812912 843.044373,166.165512 
	C835.724915,171.934784 827.292236,174.303482 818.102661,171.510269 
	C813.054932,169.975983 811.189026,165.349457 812.964172,160.139542 
	C813.640625,158.154114 814.021667,155.692230 815.421143,154.418320 
	C817.446777,152.574280 820.505188,150.223694 822.709778,150.588287 
	C826.336792,151.188110 828.805786,154.286179 827.983459,158.701584 
	C827.694458,160.253326 827.525208,161.827347 827.176514,164.262573 
	C832.765808,161.244278 832.650146,156.855423 831.770447,153.081894 
	C830.942383,149.529526 827.708069,147.303741 823.845337,147.035599 
	C813.553467,146.321136 804.472412,149.559753 797.054932,156.600830 
	C793.291443,160.173386 790.361816,164.624435 787.002930,169.048645 
z"/>
<path fill="#04897D" opacity="1.000000" stroke="none" 
	d="
M822.980103,218.805801 
	C818.950073,225.165497 807.735840,225.477402 802.042786,221.430130 
	C798.584473,218.971558 799.565796,215.293549 801.005981,212.048737 
	C802.541382,208.589645 805.606262,206.918045 809.028320,208.287689 
	C810.413513,208.842087 811.141785,211.824005 811.509949,213.822662 
	C811.712830,214.924011 810.548706,216.277176 810.000854,217.516815 
	C810.598083,217.750671 811.195312,217.984543 811.792603,218.218399 
	C812.523071,215.950531 814.076172,213.553101 813.745361,211.452362 
	C813.434448,209.478210 811.487915,206.867386 809.648193,206.182312 
	C801.487122,203.143219 793.438049,204.824387 787.300842,210.490631 
	C777.786743,219.274796 769.433105,229.305084 760.071533,238.268219 
	C751.092163,246.865372 740.265198,251.592743 727.478638,250.686432 
	C744.388062,249.580429 753.946472,237.651581 764.383972,226.480148 
	C772.800232,217.472122 781.771362,208.707581 791.678772,201.448914 
	C800.689087,194.847534 813.223633,195.656525 820.916504,209.273392 
	C822.389404,211.880554 822.346436,215.344086 822.980103,218.805801 
z"/>
<path fill="#12534B" opacity="1.000000" stroke="none" 
	d="
M475.065613,296.396790 
	C477.890137,292.043701 480.709900,288.095459 483.365509,284.039764 
	C484.598145,282.157227 485.511444,280.065643 486.972351,277.308716 
	C491.458221,283.995850 496.715179,283.369781 502.641663,279.993286 
	C503.001495,280.002502 502.975128,279.980927 502.975159,279.980927 
	C500.075073,286.776001 497.175018,293.571075 494.223022,300.700684 
	C490.305328,306.167053 482.925446,308.527069 477.491425,305.191559 
	C473.182922,302.546936 472.343719,300.822205 475.065613,296.396790 
z"/>
<path fill="#6DC9CA" opacity="1.000000" stroke="none" 
	d="
M677.362000,259.287720 
	C677.123108,259.754852 676.735046,260.100525 676.346924,260.446198 
	C676.373779,260.031219 676.400635,259.616272 676.669250,259.064392 
	C676.911011,258.927460 677.212769,259.166290 677.362000,259.287720 
z"/>
<path fill="#FFFFFF" opacity="1.000000" stroke="none" 
	d="
M137.308289,295.234406 
	C146.875778,282.853180 158.493164,273.682709 172.979828,268.689758 
	C177.633621,267.085785 182.860291,265.430573 188.344208,268.390106 
	C172.061539,289.411835 158.878983,311.806946 148.941895,335.329742 
	C137.261047,332.713074 125.964516,330.182526 114.314125,327.572693 
	C120.409431,316.628723 127.939522,305.520172 137.308289,295.234406 
z"/>
<path fill="#FFFFFF" opacity="1.000000" stroke="none" 
	d="
M493.962402,390.039734 
	C497.647583,374.762573 505.354065,361.758240 513.190979,348.941803 
	C516.474243,343.572357 521.476562,339.197662 526.022583,334.699463 
	C527.060608,333.672424 530.228760,333.153076 531.035522,333.897247 
	C532.487854,335.236938 534.061157,338.088470 533.553284,339.646484 
	C529.982483,350.600830 526.555969,361.691620 521.748962,372.123962 
	C518.223694,379.774597 512.848389,386.616791 507.933990,393.562042 
	C505.933624,396.389099 503.181915,398.814301 500.393524,400.921387 
	C496.838165,403.608093 493.101471,401.636688 493.056610,397.186157 
	C493.034119,394.950989 493.618042,392.709686 493.962402,390.039734 
z"/>
<path fill="#FFFFFF" opacity="1.000000" stroke="none" 
	d="
M304.000671,338.194580 
	C302.008209,346.034515 300.990112,353.885254 297.802094,360.724548 
	C292.601807,371.880737 286.100525,382.443970 279.882141,393.102142 
	C278.420074,395.608032 276.198425,397.965790 273.769379,399.523102 
	C271.665070,400.872223 267.923096,402.281311 266.450348,401.313141 
	C264.760529,400.202209 263.737610,396.271820 264.248444,393.971039 
	C265.560944,388.059265 267.215607,382.034119 269.935059,376.662598 
	C276.018036,364.647308 282.697540,352.924164 289.450958,341.265625 
	C290.981079,338.624115 293.608978,336.484741 296.072540,334.548004 
	C300.098175,331.383270 302.998657,332.670959 304.000671,338.194580 
z"/>
<path fill="#FFFFFF" opacity="1.000000" stroke="none" 
	d="
M404.998962,370.713562 
	C408.487488,359.408356 413.013214,348.996887 420.063232,339.856995 
	C422.448181,336.765076 425.130402,332.579681 429.359741,334.634186 
	C430.767365,335.318024 430.580414,341.183319 429.726166,344.296753 
	C425.965881,358.001648 417.613068,368.026886 403.900482,373.944000 
	C404.356567,372.755402 404.673767,371.928772 404.998962,370.713562 
z"/>
<path fill="#FFFFFF" opacity="1.000000" stroke="none" 
	d="
M207.470215,352.511536 
	C207.026474,353.756378 206.422943,354.806549 205.819427,355.856720 
	C205.578949,355.767853 205.338455,355.678955 205.097961,355.590088 
	C205.504730,354.469910 205.911484,353.349701 206.635956,352.095398 
	C207.072601,352.079803 207.191528,352.198334 207.470215,352.511536 
z"/>
<path fill="#FFFFFF" opacity="1.000000" stroke="none" 
	d="
M512.496704,399.501099 
	C512.713745,398.656982 513.089355,397.997559 513.848450,396.664581 
	C513.753601,398.158569 513.702637,398.961517 513.334229,399.888123 
	C513.016846,400.011841 512.655273,399.685791 512.496704,399.501099 
z"/>
<path fill="#FFFFFF" opacity="1.000000" stroke="none" 
	d="
M165.556915,405.459015 
	C165.873383,404.990906 166.350494,404.738495 166.827606,404.486084 
	C166.763535,404.944336 166.699463,405.402588 166.358459,405.965790 
	C165.960220,405.938751 165.838898,405.806732 165.556915,405.459015 
z"/>
<path fill="#FFFFFF" opacity="1.000000" stroke="none" 
	d="
M432.566284,402.472168 
	C432.881836,402.008148 433.356415,401.755463 433.831024,401.502808 
	C433.765228,401.957123 433.699432,402.411407 433.358643,402.969177 
	C432.964203,402.942932 432.844757,402.813232 432.566284,402.472168 
z"/>
<path fill="#FFFFFF" opacity="1.000000" stroke="none" 
	d="
M357.121368,364.103760 
	C357.489594,363.687622 358.053345,363.457062 358.617126,363.226501 
	C358.471619,363.564056 358.326080,363.901611 357.961273,364.429993 
	C357.600311,364.510345 357.458618,364.399841 357.121368,364.103760 
z"/>
<path fill="#FFFFFF" opacity="1.000000" stroke="none" 
	d="
M702.242371,392.233032 
	C699.121521,394.812531 696.258423,397.138153 693.434631,399.431885 
	C687.145447,395.030853 688.738464,389.533203 690.305786,384.480469 
	C694.376526,371.357147 700.227722,358.994629 707.976196,347.636658 
	C711.441650,342.556854 715.251160,337.609253 719.569336,333.262054 
	C721.408203,331.410889 724.950317,331.251587 727.718445,330.323425 
	C728.163147,333.137146 729.400940,336.093323 728.925354,338.741760 
	C725.570068,357.424286 715.604675,373.121063 705.629150,388.768433 
	C704.842651,390.002167 703.554932,390.916412 702.242371,392.233032 
z"/>
<path fill="#FFFFFF" opacity="1.000000" stroke="none" 
	d="
M991.265320,359.388245 
	C996.311890,350.538422 1000.944336,341.905029 1006.137939,333.623566 
	C1007.245972,331.856781 1010.850891,330.014954 1012.505798,330.574127 
	C1015.934509,331.732758 1014.779907,334.886139 1014.118713,338.027710 
	C1011.049011,352.612549 1002.873962,363.017334 989.700867,369.678650 
	C989.330444,369.865967 988.834717,369.805389 988.027588,369.906921 
	C989.090088,366.331390 990.070923,363.030884 991.265320,359.388245 
z"/>
<path fill="#FFFFFF" opacity="1.000000" stroke="none" 
	d="
M886.916626,319.927490 
	C894.640320,301.029724 901.721375,281.807343 914.326233,264.098633 
	C917.377014,269.790222 916.185486,274.542358 914.579834,278.624420 
	C909.625488,291.220551 903.317322,303.135284 894.150757,313.309723 
	C892.090027,315.596924 890.109192,317.955994 887.682495,320.298462 
	C887.154419,320.185791 887.035522,320.056641 886.916626,319.927490 
z"/>
<path fill="#FFFFFF" opacity="1.000000" stroke="none" 
	d="
M887.431519,320.525452 
	C887.116821,320.978363 886.643982,321.220795 886.171082,321.463196 
	C886.238525,321.017914 886.305908,320.572662 886.645020,320.027435 
	C887.035522,320.056641 887.154419,320.185791 887.431519,320.525452 
z"/>
<path fill="#FFFFFF" opacity="1.000000" stroke="none" 
	d="
M785.495239,398.486938 
	C785.608154,397.764954 785.878967,397.233093 786.149780,396.701233 
	C786.416565,396.896301 786.683289,397.091370 786.950073,397.286438 
	C786.830627,397.795288 786.711243,398.304169 786.304199,398.912567 
	C786.016663,399.012115 785.653198,398.677094 785.495239,398.486938 
z"/>
<path fill="#FFFFFF" opacity="1.000000" stroke="none" 
	d="
M745.555908,398.459045 
	C745.836487,397.916077 746.277466,397.588196 746.718506,397.260315 
	C746.690247,397.793396 746.662048,398.326508 746.356689,398.964172 
	C745.958435,398.937164 745.837341,398.805634 745.555908,398.459045 
z"/>
<path fill="#FFFFFF" opacity="1.000000" stroke="none" 
	d="
M835.558228,387.458679 
	C835.874268,386.990295 836.351318,386.738434 836.828369,386.486511 
	C836.764709,386.945068 836.701050,387.403625 836.360596,387.967529 
	C835.962280,387.940308 835.840698,387.807739 835.558228,387.458679 
z"/>
<path fill="#FFFFFF" opacity="1.000000" stroke="none" 
	d="
M926.441772,350.541016 
	C926.125854,351.008575 925.648987,351.259796 925.172119,351.511017 
	C925.235840,351.053162 925.299561,350.595306 925.639832,350.032379 
	C926.037903,350.059784 926.159363,350.192261 926.441772,350.541016 
z"/>
<path fill="#12534B" opacity="1.000000" stroke="none" 
	d="
M503.012726,280.015503 
	C503.108978,279.983978 503.194000,279.939484 503.127075,279.937958 
	C502.975128,279.980927 503.001495,280.002502 503.012726,280.015503 
z"/>
</svg>